<svg width="33" height="14" viewBox="0 0 33 14" fill="none" xmlns="http://www.w3.org/2000/svg">
<path d="M11.0127 2.58496H7.17188V13H4.08691V2.58496H0.316406V0.203125H11.0127V2.58496ZM22.4297 8.66699C22.3887 9.55762 22.1484 10.3457 21.709 11.0312C21.2695 11.7109 20.6514 12.2383 19.8545 12.6133C19.0635 12.9883 18.1582 13.1758 17.1387 13.1758C15.457 13.1758 14.1328 12.6279 13.166 11.5322C12.1992 10.4365 11.7158 8.88965 11.7158 6.8916V6.25879C11.7158 5.00488 11.9326 3.90918 12.3662 2.97168C12.8057 2.02832 13.4355 1.30176 14.2559 0.791992C15.0762 0.276367 16.0254 0.0185547 17.1035 0.0185547C18.6562 0.0185547 19.9043 0.428711 20.8477 1.24902C21.791 2.06348 22.3271 3.18848 22.4561 4.62402H19.3799C19.3564 3.84473 19.1602 3.28516 18.791 2.94531C18.4219 2.60547 17.8594 2.43555 17.1035 2.43555C16.3359 2.43555 15.7734 2.72266 15.416 3.29688C15.0586 3.87109 14.8711 4.78809 14.8535 6.04785V6.95312C14.8535 8.31836 15.0234 9.29395 15.3633 9.87988C15.709 10.4658 16.3008 10.7588 17.1387 10.7588C17.8477 10.7588 18.3896 10.5918 18.7646 10.2578C19.1396 9.92383 19.3389 9.39355 19.3623 8.66699H22.4297ZM26.9736 10.627H32.3438V13H23.8887V0.203125H26.9736V10.627Z" fill="#FA001D"/>
</svg>
